<svg width="32" height="32" viewBox="0 0 32 32" fill="none" xmlns="http://www.w3.org/2000/svg">
<g clip-path="url(#clip0_44_114)">
<path d="M15.9223 0.00323832C16.3023 -0.017206 16.7025 0.0601255 17.0572 0.207651C18.0494 0.620528 18.4621 1.29734 18.8742 2.29974C19.0985 1.99259 19.3332 1.72546 19.6391 1.51239C20.2165 1.1104 20.9521 1.00852 21.6159 1.17322C22.2737 1.33656 22.8284 1.79211 23.1838 2.41218C23.5964 3.13233 23.6787 3.9298 23.502 4.74739C23.7093 4.63813 23.9071 4.51123 24.1197 4.41245C24.7673 4.11166 25.5372 4.11311 26.1876 4.4023C26.5272 4.54973 26.8359 4.76983 27.0955 5.04946C27.3551 5.32909 27.5602 5.66256 27.6986 6.03C28.0213 6.89519 27.9046 7.66657 27.5796 8.50066C27.8597 8.47726 28.1431 8.47321 28.4215 8.51696C29.1507 8.63165 29.767 9.0148 30.2053 9.65952C30.6408 10.3004 30.8081 11.0712 30.6965 11.8597C30.5901 12.6133 30.1685 13.3385 29.6028 13.7861C29.6917 13.8038 29.7797 13.8261 29.8665 13.8529C30.6027 14.0718 31.2455 14.5574 31.6236 15.2857C31.9915 15.9943 32.106 16.8251 31.8945 17.6107C31.6504 18.5164 31.1795 19.0823 30.4321 19.5327C30.4987 19.5796 30.5634 19.6289 30.6227 19.6863C31.1371 20.1828 31.4913 21.0799 31.5217 21.8203C31.5401 22.243 31.4811 22.6655 31.3477 23.0632C31.2143 23.4609 31.0094 23.8258 30.7448 24.1367C30.2103 24.7555 29.4729 25.1214 28.692 25.1552C28.8659 25.8169 28.9467 26.4218 28.7642 27.0971C28.5572 27.8403 28.0891 28.4654 27.4612 28.8372C26.7526 29.2504 25.9231 29.2328 25.1719 28.9855C25.1521 29.293 25.1117 29.5922 25.0278 29.8876C24.8058 30.6679 24.3736 31.2831 23.7004 31.6619C22.9396 32.0899 22.2338 32.0805 21.4344 31.8071C21.6351 31.4282 21.8817 31.0777 22.0853 30.6996C22.7019 29.5398 23.2072 28.3143 23.5936 27.0427C24.2261 26.8715 24.8105 26.6311 25.2452 26.0803C25.7707 25.414 25.8711 24.6819 25.8069 23.8354C26.7181 23.6929 27.4317 23.3352 28.0997 22.6445C27.2481 22.6136 26.4364 22.2044 25.8028 21.5935C25.9379 21.484 26.0872 21.3954 26.2249 21.2892C27.5334 20.2803 27.8347 18.646 28.0882 17.0359C27.8522 17.4543 27.587 17.8286 27.2595 18.1685C26.7223 18.7262 26.0953 19.123 25.3318 19.097C24.7038 19.0755 24.261 18.7228 23.8439 18.2467C23.9424 18.2016 24.0401 18.1545 24.137 18.1055C24.6355 17.8494 25.0309 17.4218 25.2179 16.8542C24.83 17.0356 24.4996 17.1991 24.0716 17.2211C23.7948 17.235 23.5185 17.1889 23.2584 17.0855C22.9985 16.9821 22.7601 16.8236 22.557 16.6191C22.1144 16.1735 21.902 15.5889 21.8839 14.9398C21.5111 15.1991 21.0972 15.4052 20.6507 15.4394C20.0596 15.4844 19.4644 15.2328 19.0258 14.8075C18.5769 14.372 18.3509 13.8277 18.3167 13.1802C17.9057 13.9217 17.3428 14.3253 16.583 14.5566C16.2324 14.6373 15.8635 14.6535 15.5104 14.5825C14.6848 14.4168 14.1573 13.8856 13.694 13.1604C13.6801 13.671 13.5441 14.1334 13.2531 14.54C12.9121 15.0165 12.3788 15.3267 11.8292 15.4013C11.0833 15.5027 10.5943 15.1997 10.0251 14.72C10.1001 15.2767 10.056 15.8238 9.77621 16.31C9.62939 16.5611 9.43814 16.7783 9.21352 16.9488C8.98892 17.1193 8.7354 17.2396 8.46762 17.3032C7.86054 17.4502 7.36659 17.2816 6.85349 16.9297C7.09254 17.5597 7.55689 17.9406 8.08495 18.2742C7.97709 18.4011 7.86962 18.5368 7.74622 18.6464C7.54844 18.8236 7.32017 18.9563 7.07468 19.0367C6.82919 19.1171 6.5714 19.1436 6.31635 19.1149C5.47437 19.0176 4.7393 18.3464 4.22833 17.6567C4.203 18.3397 4.23687 18.982 4.46299 19.6275C4.79099 20.5637 5.41716 21.1837 6.24225 21.5871C5.47423 22.3611 4.76755 22.5591 3.75012 22.6438C3.91268 22.897 4.11374 23.1063 4.3437 23.2868C4.94539 23.7595 5.49384 23.8344 6.21274 23.7062C6.13433 24.5936 6.22085 25.3427 6.7541 26.0588C7.2228 26.6882 7.81116 26.944 8.53664 27.0231C8.95812 28.6307 9.64924 30.276 10.5704 31.6208C10.2576 31.7449 9.94539 31.8501 9.61014 31.8662C8.9193 31.899 8.20143 31.596 7.69555 31.0888C7.07666 30.4686 6.85161 29.75 6.82362 28.8585C6.14526 29.1264 5.42151 29.1591 4.7522 28.8391C4.43642 28.6882 4.15177 28.4701 3.91515 28.1975C3.67854 27.925 3.49477 27.6036 3.37476 27.2526C3.08677 26.4335 3.18572 25.7159 3.50694 24.9356C3.38182 24.9385 3.25668 24.939 3.13154 24.9371C2.43657 24.9206 1.70615 24.4986 1.23582 23.9561C0.728043 23.3702 0.463943 22.528 0.492171 21.729C0.525106 20.795 0.96556 20.0781 1.58036 19.4608C1.43589 19.3588 1.2848 19.2649 1.14498 19.1557C0.517275 18.6655 0.14119 17.9273 0.0285613 17.1009C-0.0757353 16.3356 0.108281 15.4906 0.536837 14.8696C0.955724 14.2628 1.55976 13.8421 2.25399 13.7318C2.1182 13.5929 1.98206 13.4544 1.86155 13.2995C1.33772 12.6262 1.13924 11.8425 1.21595 10.9709C1.28773 10.1553 1.70095 9.42078 2.28065 8.90798C2.91507 8.34676 3.62687 8.17916 4.42636 8.26387C4.38803 8.14561 4.35179 8.02655 4.31765 7.90679C4.10706 7.14146 4.16153 6.31667 4.51672 5.61144C4.87544 4.91258 5.47484 4.39662 6.18351 4.17668C7.00992 3.91689 7.6782 4.13927 8.40473 4.57047C8.35519 4.2753 8.33362 3.99513 8.36497 3.69545C8.44614 2.91957 8.82024 2.17508 9.39077 1.69584C9.9616 1.21634 10.7433 1.01012 11.456 1.11016C12.2076 1.21568 12.7393 1.65744 13.193 2.2946C13.3613 1.86064 13.5469 1.46442 13.8328 1.10584C14.3771 0.42283 15.0989 0.0690772 15.9223 0.00323832Z" fill="#FEFEFE"/>
</g>
<defs>
<clipPath id="clip0_44_114">
<rect width="32" height="32" fill="white"/>
</clipPath>
</defs>
</svg>
